<!DOCTYPE svg PUBLIC "-//W3C//DTD SVG 1.1//EN" "http://www.w3.org/Graphics/SVG/1.1/DTD/svg11.dtd">
<!-- Uploaded to: SVG Repo, www.svgrepo.com, Transformed by: SVG Repo Mixer Tools -->
<svg xmlns:dc="http://purl.org/dc/elements/1.1/" xmlns:cc="http://creativecommons.org/ns#" xmlns:rdf="http://www.w3.org/1999/02/22-rdf-syntax-ns#" xmlns:svg="http://www.w3.org/2000/svg" xmlns="http://www.w3.org/2000/svg" version="1.1" width="800px" height="800px" viewBox="-1.4 -1.4 16.80 16.80" id="svg2" fill="#000000">
<g id="SVGRepo_bgCarrier" stroke-width="0">
<rect x="-1.4" y="-1.4" width="16.80" height="16.80" rx="0" fill="#7ed0ec" strokewidth="0"/>
</g>
<g id="SVGRepo_tracerCarrier" stroke-linecap="round" stroke-linejoin="round"/>
<g id="SVGRepo_iconCarrier"> <metadata id="metadata9"> <rdf:rdf> <cc:work rdf:about=""> <dc:format>image/svg+xml</dc:format> <dc:type rdf:resource="http://purl.org/dc/dcmitype/StillImage"/> <dc:title/> </cc:work> </rdf:rdf> </metadata> <defs id="defs7"/> <rect width="14" height="14" x="0" y="0" id="canvas" style="fill:none;stroke:none;visibility:hidden"/> <path d="M 3,0 C 2,0 1,1 1,2 l 0,10.484375 1,0 C 2,13 2,14 3,14 4,14 4,13 4,12.484375 l 6,0.03125 C 10,13 10,14 11,14 c 1,0 1,-1 1,-1.484375 l 1,0 L 13,2 C 13,1 12,0 11,0 z m 1,1 6,0 0,1 -6,0 z M 3,2.96875 11,3 11,7 3,6.96875 z M 4,9 C 4.552285,9 5,9.447715 5,10 5,10.552284 4.552285,11 4,11 3.447715,11 3,10.552284 3,10 3,9.447715 3.447715,9 4,9 z m 6,0 c 0.552285,0 1,0.447715 1,1 0,0.552284 -0.447715,1 -1,1 C 9.447715,11 9,10.552284 9,10 9,9.447715 9.447715,9 10,9 z" id="bus-stop" style="fill:#ffffff;fill-opacity:1;stroke:none"/> </g>
</svg>